<svg width="838" height="270" fill="none" xmlns="http://www.w3.org/2000/svg"><path d="M838 0H0v270h838V0z" fill="#fff"/><path d="M168 212c41.421 0 75-33.579 75-75s-33.579-75-75-75-75 33.579-75 75 33.579 75 75 75z" fill="#FFCF00"/><path d="M128.625 101.375L164.25 137l-35.625 35.625m45-71.25L209.25 137l-35.625 35.625" stroke="#191919" stroke-width="18"/><g clip-path="url(#clip0)"><path fill-rule="evenodd" clip-rule="evenodd" d="M492.51 211.953c4.047 0 7.757-2.131 9.751-5.612a11.282 11.282 0 000-11.255l-73.604-127.44a11.201 11.201 0 00-9.707-5.599h-.088a11.203 11.203 0 00-9.707 5.598l-73.604 127.441a11.282 11.282 0 000 11.255c1.995 3.481 5.705 5.612 9.751 5.612H492.51z" fill="#EC1D24"/><path fill-rule="evenodd" clip-rule="evenodd" d="M351.796 196.954h134.22l-67.11-116.19-67.11 116.19z" fill="#fff"/><path d="M464.155 168.257l13.669 23.983h-25.07v-3.698c-4.878-.009-5.054 3.75-11.371 3.698-6.293.052-6.453-3.745-11.386-3.698-4.784-.047-5.008 3.634-11.091 3.698-6.084-.064-6.308-3.745-11.092-3.698-4.933-.047-5.093 3.75-11.386 3.698-6.317.052-6.492-3.707-11.371-3.698v3.698h-25.07l13.669-23.983h11.401v8.765c6.303.092 6.466 3.87 11.371 3.845 4.868.025 5.028-3.783 11.386-3.845 6.16.061 6.429 3.71 11.092 3.83 4.662-.12 4.932-3.769 11.091-3.83 6.358.062 6.518 3.87 11.386 3.845 4.905.025 5.068-3.753 11.371-3.845v-8.765h11.401zm-11.401 12.61c-4.878.046-5.054 3.801-11.371 3.83-6.293-.029-6.438-3.823-11.371-3.83-4.787.007-5.012 3.678-11.106 3.816-6.095-.138-6.32-3.809-11.106-3.816-4.934.007-5.079 3.801-11.372 3.83-6.317-.029-6.492-3.784-11.371-3.83v3.83c6.303.038 6.466 3.816 11.371 3.845 4.868-.029 5.013-3.838 11.372-3.845 6.164.007 6.433 3.663 11.106 3.83 4.673-.167 4.942-3.823 11.106-3.83 6.358.007 6.503 3.816 11.371 3.845 4.905-.029 5.068-3.807 11.371-3.845v-3.83zM385.057 168.257l-6.851-6.852 47.661-47.666 6.851 6.852-47.661 47.666z" fill="#000"/></g><path d="M731.609 176.466l-59.128 33.478v-26.069l36.841-20.288 22.287 12.879zm4.05-3.666v-70.001l-21.628 12.51v45l21.628 12.491zm-127.5 3.666l59.128 33.478v-26.069l-36.861-20.288-22.267 12.879zm-4.05-3.666v-70.001l21.627 12.51v45L604.109 172.8zm2.538-74.54l60.64-34.331v25.195L628.43 110.52l-.31.174-21.473-12.433zm126.473 0L672.481 63.93v25.195l38.856 21.375.31.175L733.12 98.26z" fill="#8ED6FB"/><path d="M667.287 177.94l-36.357-20.017v-39.627l36.357 21.007v38.637zm5.194 0l36.356-19.998v-39.646l-36.356 21.007v38.637zm-39.09-64.221l36.493-20.075 36.492 20.075-36.492 21.084-36.493-21.084z" fill="#1C78C0"/><defs><clipPath id="clip0"><path fill="#fff" transform="translate(334 62)" d="M0 0h169.811v150H0z"/></clipPath></defs></svg>
